<?xml version="1.0" encoding="utf-8"?>
<!-- Generator: Adobe Illustrator 19.2.1, SVG Export Plug-In . SVG Version: 6.00 Build 0)  -->
<svg version="1.1" xmlns="http://www.w3.org/2000/svg" xmlns:xlink="http://www.w3.org/1999/xlink" x="0px" y="0px"
	 viewBox="0 0 1400 980" style="enable-background:new 0 0 1400 980;" xml:space="preserve">
<style type="text/css">
	.st0{fill:#EFF9FE;}
	.st1{fill:#056681;}
</style>
<g id="Layer_2">
	<rect class="st0" width="1400" height="980"/>
</g>
<g id="Layer_1">
	<g>
		<g>
			<g>
				<g>
					<path class="st1" d="M1035.7,170.5c-4.4,0-8.1-3.6-8.1-8.1s3.6-8.1,8.1-8.1s8.1,3.6,8.1,8.1S1040.1,170.5,1035.7,170.5z
						 M1035.7,159c-1.9,0-3.4,1.5-3.4,3.4s1.5,3.4,3.4,3.4s3.4-1.5,3.4-3.4S1037.5,159,1035.7,159z"/>
					<path class="st1" d="M1035.7,263.1c-4.4,0-8.1-3.6-8.1-8.1c0-4.4,3.6-8.1,8.1-8.1s8.1,3.6,8.1,8.1
						C1043.7,259.4,1040.1,263.1,1035.7,263.1z M1035.7,251.6c-1.9,0-3.4,1.5-3.4,3.4c0,1.9,1.5,3.4,3.4,3.4s3.4-1.5,3.4-3.4
						C1039,253.1,1037.5,251.6,1035.7,251.6z"/>
				</g>
				<g>
					<path class="st1" d="M1068.4,184c-2.1,0-4.1-0.8-5.7-2.4c-1.5-1.5-2.4-3.5-2.4-5.7c0-2.2,0.8-4.2,2.4-5.7
						c3.1-3.1,8.3-3.1,11.4,0c1.5,1.5,2.4,3.5,2.4,5.7c0,2.2-0.8,4.2-2.4,5.7C1072.5,183.2,1070.5,184,1068.4,184z M1068.4,172.6
						c-0.9,0-1.7,0.3-2.4,1c-0.6,0.6-1,1.5-1,2.4c0,0.9,0.4,1.8,1,2.4c1.3,1.3,3.5,1.3,4.8,0c0.6-0.6,1-1.5,1-2.4
						c0-0.9-0.4-1.8-1-2.4C1070.1,172.9,1069.3,172.6,1068.4,172.6z"/>
					<path class="st1" d="M1002.9,249.5c-2.1,0-4.1-0.8-5.7-2.4c-1.5-1.5-2.4-3.5-2.4-5.7s0.8-4.2,2.4-5.7c3.1-3.1,8.3-3.1,11.4,0
						c1.5,1.5,2.4,3.5,2.4,5.7s-0.8,4.2-2.4,5.7l0,0l0,0C1007.1,248.7,1005,249.5,1002.9,249.5z M1002.9,238.1c-0.9,0-1.7,0.3-2.4,1
						c-0.6,0.6-1,1.5-1,2.4c0,0.9,0.4,1.8,1,2.4c1.3,1.3,3.5,1.3,4.8,0l0,0c0.6-0.6,1-1.5,1-2.4c0-0.9-0.4-1.8-1-2.4
						C1004.7,238.4,1003.8,238.1,1002.9,238.1z"/>
				</g>
				<g>
					<path class="st1" d="M989.4,216.8c-4.4,0-8.1-3.6-8.1-8.1s3.6-8.1,8.1-8.1s8.1,3.6,8.1,8.1S993.8,216.8,989.4,216.8z
						 M989.4,205.3c-1.9,0-3.4,1.5-3.4,3.4s1.5,3.4,3.4,3.4s3.4-1.5,3.4-3.4S991.2,205.3,989.4,205.3z"/>
				</g>
				<g>
					<path class="st1" d="M1068.4,249.5c-2.1,0-4.1-0.8-5.7-2.4l0,0l0,0c-1.5-1.5-2.4-3.5-2.4-5.7s0.8-4.2,2.4-5.7
						c3.1-3.1,8.3-3.1,11.4,0c1.5,1.5,2.4,3.5,2.4,5.7s-0.8,4.2-2.4,5.7C1072.5,248.7,1070.5,249.5,1068.4,249.5z M1068.4,238.1
						c-0.9,0-1.7,0.3-2.4,1c-0.6,0.6-1,1.5-1,2.4c0,0.9,0.4,1.8,1,2.4l0,0c1.3,1.3,3.5,1.3,4.8,0c0.6-0.6,1-1.5,1-2.4
						c0-0.9-0.4-1.8-1-2.4C1070.1,238.4,1069.3,238.1,1068.4,238.1z"/>
					<path class="st1" d="M1002.9,184c-2.1,0-4.1-0.8-5.7-2.4c-1.5-1.5-2.4-3.5-2.4-5.7c0-2.2,0.8-4.2,2.4-5.7
						c3.1-3.1,8.3-3.1,11.4,0c1.5,1.5,2.4,3.5,2.4,5.7c0,2.2-0.8,4.2-2.4,5.7C1007.1,183.2,1005,184,1002.9,184z M1002.9,172.6
						c-0.9,0-1.7,0.3-2.4,1c-0.6,0.6-1,1.5-1,2.4c0,0.9,0.4,1.8,1,2.4c1.3,1.3,3.5,1.3,4.8,0c0.6-0.6,1-1.5,1-2.4
						c0-0.9-0.4-1.8-1-2.4C1004.7,172.9,1003.8,172.6,1002.9,172.6z"/>
				</g>
			</g>
			<path class="st1" d="M1099.5,243.6c-0.4,0-0.8,0-1.2-0.1l-43.3-9.3v-50.3l43-11.8c3-0.8,6.1,0.9,7,3.8c6.5,20.8,6.5,42.8,0,63.6
				l-0.1,0.2C1104.1,242,1101.9,243.6,1099.5,243.6z M1099.2,238.9c0.5,0.1,1.1-0.2,1.2-0.7l0.1-0.2c6.3-19.9,6.3-40.9,0-60.7
				c-0.2-0.5-0.7-0.8-1.3-0.7l-39.6,10.8v43L1099.2,238.9z"/>
			<path class="st1" d="M1035.7,272.2c-17.1,0-33.2-6.7-45.2-18.9c-12-12.2-18.5-28.4-18.3-45.5c0.2-16.9,7.1-32.7,19.3-44.6
				c12.2-11.9,28.2-18.3,45.2-18c21.5,0.3,41.2,11.3,52.7,29.5c0.6,0.9,0.7,2.1,0.3,3.1c-0.4,1-1.3,1.8-2.3,2.1l-30,8.2l-1.2-1.1
				c-5.6-5.2-12.8-8.1-20.5-8.1c-8.1,0-15.6,3.2-21.3,8.9c-5.7,5.8-8.7,13.4-8.6,21.4c0.2,15.9,13.3,29.1,29.2,29.4
				c7.7,0.2,15.1-2.6,20.8-7.8l1.1-1l30.9,6.6c1.1,0.2,2,1,2.4,2c0.4,1,0.4,2.2-0.2,3.2c-5.6,9.2-13.4,16.8-22.7,22.2
				C1057.7,269.3,1046.8,272.2,1035.7,272.2z M1035.7,150.9c-15.1,0-29.3,5.8-40.2,16.4c-11.1,10.8-17.4,25.2-17.6,40.6
				c-0.2,15.6,5.7,30.3,16.6,41.4c11,11.1,25.6,17.2,41.2,17.2c19.3,0,36.9-9.3,47.7-25.1l-24.9-5.3c-6.6,5.6-15,8.5-23.7,8.3
				c-9.2-0.2-17.9-4-24.4-10.6c-6.5-6.6-10.2-15.3-10.4-24.5c-0.1-9.6,3.5-18.7,10.2-25.5c6.7-6.9,15.8-10.6,25.4-10.6
				c8.6,0,16.7,3,23.2,8.6l23.9-6.5c-10.7-15-27.7-24-46.2-24.3C1036.2,150.9,1036,150.9,1035.7,150.9z"/>
			<path class="st1" d="M1072.9,228.2c-1.3,0-2.3-1-2.3-2.3v-34.3c0-1.3,1-2.3,2.3-2.3s2.3,1,2.3,2.3v34.3
				C1075.2,227.2,1074.1,228.2,1072.9,228.2z"/>
			<path class="st1" d="M1091.3,232.4c-1.3,0-2.3-1-2.3-2.3v-5c0-1.3,1-2.3,2.3-2.3s2.3,1,2.3,2.3v5
				C1093.7,231.3,1092.6,232.4,1091.3,232.4z"/>
			<path class="st1" d="M1091.3,218.5c-1.3,0-2.3-1-2.3-2.3v-28.8c0-1.3,1-2.3,2.3-2.3s2.3,1,2.3,2.3v28.8
				C1093.7,217.5,1092.6,218.5,1091.3,218.5z"/>
		</g>
		<g>
			<path class="st1" d="M438.6,797.8H299.8v-70.5c0-4.9,4-8.8,8.8-8.8h121.2c4.9,0,8.8,4,8.8,8.8V797.8z M305.5,792.1h127.4v-64.8
				c0-1.7-1.4-3.1-3.1-3.1H308.6c-1.7,0-3.1,1.4-3.1,3.1V792.1z"/>
			<path class="st1" d="M446.1,813.7H292.3c-2.2,0-4-1.8-4-4v-13.5c0-2.2,1.8-4,4-4h153.7c2.2,0,4,1.8,4,4v13.5
				C450.1,811.9,448.3,813.7,446.1,813.7z M294,807.9h150.3v-10.1H294V807.9z"/>
			<g>
				<g>
					<path class="st1" d="M340.9,723.7h-29.1v-9.6c0-2.3,1.9-4.2,4.2-4.2h20.8c2.3,0,4.2,1.9,4.2,4.2V723.7z M316.5,719h19.8v-4.4
						h-19.8V719z M336.7,714.6L336.7,714.6L336.7,714.6z"/>
					<path class="st1" d="M334.3,714.6h-15.9v-13.1c0-1.7,1.4-3.1,3.1-3.1h9.7c1.7,0,3.1,1.4,3.1,3.1V714.6z M323.1,709.9h6.5v-6.8
						h-6.5V709.9z M331.2,703.1L331.2,703.1L331.2,703.1z"/>
				</g>
				<g>
					<path class="st1" d="M426.6,723.7h-29.1v-9.6c0-2.3,1.9-4.2,4.2-4.2h20.8c2.3,0,4.2,1.9,4.2,4.2V723.7z M402.1,719h19.8v-4.4
						h-19.8V719z M422.4,714.6L422.4,714.6L422.4,714.6z"/>
					<path class="st1" d="M420,714.6h-15.9v-13.1c0-1.7,1.4-3.1,3.1-3.1h9.7c1.7,0,3.1,1.4,3.1,3.1V714.6z M408.8,709.9h6.5v-6.8
						h-6.5V709.9z M416.9,703.1L416.9,703.1L416.9,703.1z"/>
				</g>
			</g>
			<path class="st1" d="M325.3,754.7c-1.3,0-2.3-1-2.3-2.3v-12.8c0-1.3,1-2.3,2.3-2.3s2.3,1,2.3,2.3v12.8
				C327.6,753.7,326.6,754.7,325.3,754.7z"/>
			<path class="st1" d="M331.7,748.3h-12.8c-1.3,0-2.3-1-2.3-2.3s1-2.3,2.3-2.3h12.8c1.3,0,2.3,1,2.3,2.3S333,748.3,331.7,748.3z"/>
			<path class="st1" d="M418.4,748.3h-12.8c-1.3,0-2.3-1-2.3-2.3s1-2.3,2.3-2.3h12.8c1.3,0,2.3,1,2.3,2.3S419.7,748.3,418.4,748.3z"
				/>
			<path class="st1" d="M434.6,735.6h-95.2c-1.3,0-2.3-1-2.3-2.3c0-1.3,1-2.3,2.3-2.3h95.2c1.3,0,2.3,1,2.3,2.3
				C437,734.6,435.9,735.6,434.6,735.6z"/>
			<path class="st1" d="M317.9,735.6h-15.3c-1.3,0-2.3-1-2.3-2.3c0-1.3,1-2.3,2.3-2.3h15.3c1.3,0,2.3,1,2.3,2.3
				C320.2,734.6,319.2,735.6,317.9,735.6z"/>
		</g>
		<g>
			<path class="st1" d="M1016.6,536.6c-31.4,0-56.9-25.5-56.9-56.9c0-31.4,25.5-56.9,56.9-56.9v5.7c-28.2,0-51.2,23-51.2,51.2
				c0,28.2,23,51.2,51.2,51.2s51.2-23,51.2-51.2c0-9.1-2.4-18-6.9-25.7l4.9-2.9c5,8.7,7.7,18.5,7.7,28.6
				C1073.5,511,1047.9,536.6,1016.6,536.6z"/>
			<path class="st1" d="M1016.6,510.4c-17,0-30.8-13.8-30.8-30.8c0-17,13.8-30.8,30.8-30.8s30.8,13.8,30.8,30.8
				C1047.3,496.6,1033.5,510.4,1016.6,510.4z M1016.6,454.6c-13.8,0-25.1,11.2-25.1,25.1c0,13.8,11.2,25.1,25.1,25.1
				c13.8,0,25.1-11.2,25.1-25.1C1041.6,465.9,1030.4,454.6,1016.6,454.6z"/>
			<path class="st1" d="M1016.6,526.4c-1.3,0-2.3-1-2.3-2.3s1-2.3,2.3-2.3c12.7,0,24.7-5.7,32.7-15.6c0.8-1,2.3-1.2,3.3-0.3
				c1,0.8,1.2,2.3,0.3,3.3C1044,520.1,1030.7,526.4,1016.6,526.4z"/>
			<polygon class="st1" points="1096.7,455.1 1023.2,455.1 1023.2,449.4 1091,449.4 1091,428.9 1016.5,428.5 1016.6,422.8 
				1096.7,423.2 			"/>
			<path class="st1" d="M1111.7,460.2H1091v-45.6h20.7V460.2z M1096.7,454.5h9.2v-34.2h-9.2V454.5z"/>
			<path class="st1" d="M1016.6,501.1c-1.3,0-2.3-1-2.3-2.3v-9.5c0-1.3,1-2.3,2.3-2.3c1.3,0,2.3,1,2.3,2.3v9.5
				C1018.9,500.1,1017.8,501.1,1016.6,501.1z"/>
			<path class="st1" d="M1016.6,473.4c-1.3,0-2.3-1-2.3-2.3v-10.5c0-1.3,1-2.3,2.3-2.3c1.3,0,2.3,1,2.3,2.3v10.5
				C1018.9,472.4,1017.8,473.4,1016.6,473.4z"/>
			<path class="st1" d="M1003.1,495.5c-0.6,0-1.2-0.2-1.7-0.7c-0.9-0.9-0.9-2.4,0-3.3l6.5-6.5c0.9-0.9,2.4-0.9,3.3,0
				c0.9,0.9,0.9,2.4,0,3.3l-6.5,6.5C1004.2,495.3,1003.7,495.5,1003.1,495.5z"/>
			<path class="st1" d="M1023.7,474.8c-0.6,0-1.2-0.2-1.7-0.7c-0.9-0.9-0.9-2.4,0-3.3l6.3-6.3c0.9-0.9,2.4-0.9,3.3,0
				c0.9,0.9,0.9,2.4,0,3.3l-6.3,6.3C1024.9,474.6,1024.3,474.8,1023.7,474.8z"/>
			<path class="st1" d="M1008,482h-10.5c-1.3,0-2.3-1-2.3-2.3c0-1.3,1-2.3,2.3-2.3h10.5c1.3,0,2.3,1,2.3,2.3
				C1010.3,481,1009.3,482,1008,482z"/>
			<path class="st1" d="M1035.7,482h-10.5c-1.3,0-2.3-1-2.3-2.3c0-1.3,1-2.3,2.3-2.3h10.5c1.3,0,2.3,1,2.3,2.3
				C1038,481,1036.9,482,1035.7,482z"/>
			<path class="st1" d="M1010.5,475.9c-0.6,0-1.2-0.2-1.7-0.7l-7.4-7.4c-0.9-0.9-0.9-2.4,0-3.3c0.9-0.9,2.4-0.9,3.3,0l7.4,7.4
				c0.9,0.9,0.9,2.4,0,3.3C1011.7,475.7,1011.1,475.9,1010.5,475.9z"/>
			<path class="st1" d="M1030.1,495.5c-0.6,0-1.2-0.2-1.7-0.7l-7.4-7.4c-0.9-0.9-0.9-2.4,0-3.3c0.9-0.9,2.4-0.9,3.3,0l7.4,7.4
				c0.9,0.9,0.9,2.4,0,3.3C1031.3,495.3,1030.7,495.5,1030.1,495.5z"/>
			<path class="st1" d="M1016.6,490.6c-6,0-10.9-4.9-10.9-10.9c0-6,4.9-10.9,10.9-10.9c6,0,10.9,4.9,10.9,10.9
				C1027.5,485.7,1022.6,490.6,1016.6,490.6z M1016.6,473.4c-3.4,0-6.2,2.8-6.2,6.2c0,3.4,2.8,6.2,6.2,6.2s6.2-2.8,6.2-6.2
				C1022.8,476.2,1020,473.4,1016.6,473.4z"/>
			<path class="st1" d="M1079.8,438.5h-29.5c-1.3,0-2.3-1-2.3-2.3c0-1.3,1-2.3,2.3-2.3h29.5c1.3,0,2.3,1,2.3,2.3
				C1082.2,437.4,1081.1,438.5,1079.8,438.5z"/>
			<path class="st1" d="M1040.3,438.5h-6.8c-1.3,0-2.3-1-2.3-2.3c0-1.3,1-2.3,2.3-2.3h6.8c1.3,0,2.3,1,2.3,2.3
				C1042.7,437.4,1041.6,438.5,1040.3,438.5z"/>
		</g>
		<g>
			<path class="st1" d="M764.4,192.5h-73.7c-2.6,0-4.7-2.1-4.7-4.7v-46.2c0-6.8,5.6-12.4,12.4-12.4h58.3c6.8,0,12.4,5.6,12.4,12.4
				v46.2C769.1,190.4,767,192.5,764.4,192.5z M698.4,133.9c-4.3,0-7.7,3.5-7.7,7.7v46.2h73.7l0-46.2c0-4.3-3.5-7.7-7.7-7.7H698.4z"
				/>
			<path class="st1" d="M769.1,148.8h-83v-7.2c0-6.8,5.6-12.4,12.4-12.4h58.3c6.8,0,12.4,5.6,12.4,12.4V148.8z M690.7,144.1h73.7
				v-2.5c0-4.3-3.5-7.7-7.7-7.7h-58.3c-4.3,0-7.7,3.5-7.7,7.7V144.1z"/>
			<path class="st1" d="M739,250.4h-22.8l1.7-62.6h19.5L739,250.4z M720.9,245.7h13.2l-1.4-53.2h-10.4L720.9,245.7z"/>
			<path class="st1" d="M727.5,181c-4.9,0-8.9-4-8.9-8.9c0-4.9,4-8.9,8.9-8.9c4.9,0,8.9,4,8.9,8.9C736.5,177,732.5,181,727.5,181z
				 M727.5,167.8c-2.3,0-4.2,1.9-4.2,4.2c0,2.3,1.9,4.2,4.2,4.2c2.3,0,4.2-1.9,4.2-4.2C731.8,169.7,729.9,167.8,727.5,167.8z"/>
			<g>
				<path class="st1" d="M746.6,289.3h-38.2c-4.5,0-8.2-3.7-8.2-8.2v-27.2c0-4.5,3.7-8.2,8.2-8.2h38.2c4.5,0,8.2,3.7,8.2,8.2V281
					C754.9,285.6,751.2,289.3,746.6,289.3z M708.4,250.3c-2,0-3.6,1.6-3.6,3.6V281c0,2,1.6,3.6,3.6,3.6h38.2c2,0,3.6-1.6,3.6-3.6
					v-27.2c0-2-1.6-3.6-3.6-3.6H708.4z"/>
				<path class="st1" d="M752.5,269.8h-14.4c-1.3,0-2.3-1-2.3-2.3c0-1.3,1-2.3,2.3-2.3h14.4c1.3,0,2.3,1,2.3,2.3
					C754.9,268.7,753.8,269.8,752.5,269.8z"/>
				<path class="st1" d="M716.9,269.8h-14.4c-1.3,0-2.3-1-2.3-2.3c0-1.3,1-2.3,2.3-2.3h14.4c1.3,0,2.3,1,2.3,2.3
					C719.3,268.7,718.2,269.8,716.9,269.8z"/>
				<path class="st1" d="M727.5,280.4c-7.1,0-13-5.8-13-13c0-7.1,5.8-13,13-13s13,5.8,13,13C740.5,274.6,734.7,280.4,727.5,280.4z
					 M727.5,259.2c-4.6,0-8.3,3.7-8.3,8.3c0,4.6,3.7,8.3,8.3,8.3s8.3-3.7,8.3-8.3C735.8,262.9,732.1,259.2,727.5,259.2z"/>
			</g>
			<path class="st1" d="M766.7,158.1h-78.4c-1.3,0-2.3-1-2.3-2.3c0-1.3,1-2.3,2.3-2.3h78.4c1.3,0,2.3,1,2.3,2.3
				C769.1,157.1,768,158.1,766.7,158.1z"/>
			<path class="st1" d="M758.6,172.5c-0.9,0-1.6-0.7-1.6-1.6v-9.1c0-0.9,0.7-1.6,1.6-1.6c0.9,0,1.6,0.7,1.6,1.6v9.1
				C760.2,171.8,759.5,172.5,758.6,172.5z"/>
			<path class="st1" d="M758.6,184.6c-0.9,0-1.6-0.7-1.6-1.6v-4.4c0-0.9,0.7-1.6,1.6-1.6c0.9,0,1.6,0.7,1.6,1.6v4.4
				C760.2,183.9,759.5,184.6,758.6,184.6z"/>
			<path class="st1" d="M730.4,227.2c-0.7,0-1.3-0.6-1.3-1.3l-0.4-19.3c0-0.7,0.6-1.3,1.3-1.3c0.7,0,1.3,0.6,1.3,1.3l0.4,19.3
				C731.7,226.6,731.2,227.1,730.4,227.2C730.5,227.2,730.4,227.2,730.4,227.2z"/>
			<path class="st1" d="M730.8,241.4c-0.7,0-1.3-0.6-1.3-1.3l-0.3-8.3c0-0.7,0.5-1.3,1.3-1.3c0.7,0,1.3,0.5,1.3,1.3l0.3,8.3
				C732.1,240.8,731.6,241.4,730.8,241.4C730.9,241.4,730.8,241.4,730.8,241.4z"/>
		</g>
		<g>
			<path class="st1" d="M755.6,535.9h-56.1c-2.6,0-4.9-1.6-5.9-4l-28.7-76c-1-2.5-0.2-5.4,1.9-7.1l27.6-22.6c1.1-0.9,2.5-1.4,4-1.4
				h58.4c1.4,0,2.9,0.5,4,1.4l27.6,22.6c2.1,1.7,2.8,4.5,1.9,7.1l-11.6,30.6l-5.4-2l11.6-30.6c0.1-0.2,0-0.5-0.2-0.6l-27.6-22.6
				c-0.1-0.1-0.2-0.1-0.3-0.1h-58.4c-0.1,0-0.2,0-0.3,0.1l-27.6,22.6c-0.2,0.1-0.2,0.4-0.2,0.6l28.7,76c0.1,0.2,0.3,0.4,0.5,0.4
				h56.1c0.2,0,0.4-0.1,0.5-0.4l8-21.2l5.4,2l-8,21.2C760.5,534.3,758.2,535.9,755.6,535.9z"/>
			<g>
				<path class="st1" d="M784.7,451.6l-28.2-22.6l7.2-9c0.5-0.6,1.2-1,1.9-1c0.8-0.1,1.5,0.1,2.1,0.6l23.7,19.1c1.2,1,1.4,2.8,0.4,4
					L784.7,451.6z M763.1,428.2L784,445l3.1-3.9l-20.9-16.8L763.1,428.2z M767.4,422.9L767.4,422.9
					C767.4,422.9,767.4,422.9,767.4,422.9z"/>
				<path class="st1" d="M786.2,440.3l-19-15.2l7.7-9.6l19,15.2L786.2,440.3z M773.8,424.4l11.7,9.4l1.8-2.3l-11.7-9.4L773.8,424.4z
					"/>
				<path class="st1" d="M796.3,436.3c-1.4,0-2.8-0.5-3.9-1.4l-21.2-17c-1.3-1-2.1-2.5-2.3-4.2c-0.2-1.6,0.3-3.3,1.3-4.6
					c1-1.3,2.5-2.1,4.2-2.3c1.6-0.2,3.3,0.3,4.6,1.3l21.2,17h0c1.3,1,2.1,2.5,2.3,4.2c0.2,1.6-0.3,3.3-1.3,4.6
					c-1,1.3-2.5,2.1-4.2,2.3C796.7,436.3,796.5,436.3,796.3,436.3z M775,411.5c-0.1,0-0.1,0-0.2,0c-0.4,0-0.8,0.2-1,0.6
					c-0.3,0.3-0.4,0.7-0.3,1.1c0,0.4,0.2,0.8,0.6,1l21.2,17c0.3,0.3,0.7,0.4,1.1,0.3c0.4,0,0.8-0.2,1-0.6c0.3-0.3,0.4-0.7,0.3-1.1
					c0-0.4-0.2-0.8-0.6-1h0l-21.2-17C775.7,411.6,775.4,411.5,775,411.5z"/>
			</g>
			<path class="st1" d="M722.3,524.7c-9.9,0-17.9-8.1-17.9-17.9c0-9.9,8.1-17.9,17.9-17.9s17.9,8.1,17.9,17.9
				C740.3,516.7,732.2,524.7,722.3,524.7z M722.3,493.5c-7.3,0-13.3,6-13.3,13.3s6,13.3,13.3,13.3c7.3,0,13.3-6,13.3-13.3
				S729.6,493.5,722.3,493.5z"/>
			<path class="st1" d="M718.6,472.9c-7.8,0-14.2-6.4-14.2-14.2s6.4-14.2,14.2-14.2c7.8,0,14.2,6.4,14.2,14.2
				S726.5,472.9,718.6,472.9z M718.6,449.1c-5.3,0-9.5,4.3-9.5,9.5s4.3,9.5,9.5,9.5c5.3,0,9.5-4.3,9.5-9.5S723.9,449.1,718.6,449.1z
				"/>
			<path class="st1" d="M770.6,510.6c-7.8,0-14.2-6.4-14.2-14.2c0-7.8,6.4-14.2,14.2-14.2c7.8,0,14.2,6.4,14.2,14.2
				C784.8,504.2,778.5,510.6,770.6,510.6z M770.6,486.8c-5.3,0-9.5,4.3-9.5,9.5c0,5.3,4.3,9.5,9.5,9.5c5.3,0,9.5-4.3,9.5-9.5
				C780.2,491.1,775.9,486.8,770.6,486.8z"/>
			<g>
				<path class="st1" d="M670.3,452l-6.4-7.9c-0.7-0.9-1-2-0.9-3.1c0.1-1.1,0.7-2.1,1.6-2.8l21.6-17.3c0.9-0.7,2-1,3.1-0.9
					c1.1,0.1,2.1,0.7,2.8,1.6l6.4,7.9L670.3,452z M667.9,441.5l3.1,3.9l20.9-16.8l-3.1-3.9L667.9,441.5z"/>
				<path class="st1" d="M668.9,440.8l-7.7-9.6l19-15.2l7.7,9.6L668.9,440.8z M667.7,431.9l1.8,2.3l11.7-9.4l-1.8-2.3L667.7,431.9z"
					/>
				<path class="st1" d="M658.8,436.7c-0.2,0-0.5,0-0.7,0c-1.6-0.2-3.1-1-4.2-2.3c-2.1-2.7-1.7-6.6,1-8.7l21.2-17
					c2.7-2.1,6.6-1.7,8.7,1c1,1.3,1.5,2.9,1.3,4.6c-0.2,1.6-1,3.1-2.3,4.2l-21.2,17C661.6,436.3,660.2,436.7,658.8,436.7z
					 M657.8,429.4c-0.7,0.5-0.8,1.5-0.2,2.1c0.5,0.7,1.5,0.8,2.1,0.2l21.2-17c0.7-0.5,0.8-1.5,0.2-2.1c-0.5-0.7-1.5-0.8-2.1-0.2
					L657.8,429.4z"/>
			</g>
			<path class="st1" d="M757.4,412.8h-59.8c-2,0-3.6-1.6-3.6-3.6v-3c0-3.7,3-6.7,6.7-6.7h53.7c3.7,0,6.7,3,6.7,6.7v3
				C761.1,411.2,759.4,412.8,757.4,412.8z M698.7,408.1h57.7v-2c0-1.1-0.9-2-2-2h-53.7c-1.1,0-2,0.9-2,2V408.1z"/>
			<path class="st1" d="M734,404.1h-13v-6.8c0-3.4,2.8-6.1,6.1-6.1h0.7c3.4,0,6.1,2.8,6.1,6.1V404.1z M725.7,399.4h3.6v-2.1
				c0-0.8-0.7-1.5-1.5-1.5h-0.7c-0.8,0-1.5,0.7-1.5,1.5V399.4z"/>
			<path class="st1" d="M750.7,428.5h-46.3v-20.4h46.3V428.5z M709.1,423.8H746v-11h-36.9V423.8z"/>
			<path class="st1" d="M715.4,424.5c-0.9,0-1.6-0.7-1.6-1.6v-9.6c0-0.9,0.7-1.6,1.6-1.6c0.9,0,1.6,0.7,1.6,1.6v9.6
				C717,423.8,716.3,424.5,715.4,424.5z"/>
			<path class="st1" d="M723.4,424.5c-0.9,0-1.6-0.7-1.6-1.6v-9.6c0-0.9,0.7-1.6,1.6-1.6c0.9,0,1.6,0.7,1.6,1.6v9.6
				C725,423.8,724.3,424.5,723.4,424.5z"/>
			<path class="st1" d="M731.3,424.5c-0.9,0-1.6-0.7-1.6-1.6v-9.6c0-0.9,0.7-1.6,1.6-1.6s1.6,0.7,1.6,1.6v9.6
				C732.9,423.8,732.2,424.5,731.3,424.5z"/>
			<path class="st1" d="M739.3,424.5c-0.9,0-1.6-0.7-1.6-1.6v-9.6c0-0.9,0.7-1.6,1.6-1.6c0.9,0,1.6,0.7,1.6,1.6v9.6
				C740.9,423.8,740.2,424.5,739.3,424.5z"/>
			<path class="st1" d="M745.3,560h-35.6c-7.4,0-13.4-6-13.4-13.4v-16.4h62.4v16.4C758.7,554,752.7,560,745.3,560z M702.1,535.9
				v10.7c0,4.2,3.4,7.7,7.7,7.7h35.6c4.2,0,7.7-3.4,7.7-7.7v-10.7H702.1z"/>
			<path class="st1" d="M742.6,558.7c-0.9,0-1.6-0.7-1.6-1.6v-12c0-0.9,0.7-1.6,1.6-1.6c0.9,0,1.6,0.7,1.6,1.6v12
				C744.2,558,743.5,558.7,742.6,558.7z"/>
			<path class="st1" d="M713.2,558.7c-0.9,0-1.6-0.7-1.6-1.6v-12c0-0.9,0.7-1.6,1.6-1.6c0.9,0,1.6,0.7,1.6,1.6v12
				C714.8,558,714.1,558.7,713.2,558.7z"/>
			<path class="st1" d="M727.5,557.1c-0.9,0-1.6-0.7-1.6-1.6v-10.5c0-0.9,0.7-1.6,1.6-1.6c0.9,0,1.6,0.7,1.6,1.6v10.5
				C729.1,556.4,728.4,557.1,727.5,557.1z"/>
			<rect x="704.6" y="461.3" class="st1" width="4.7" height="48.4"/>
			
				<rect x="748.7" y="438.9" transform="matrix(0.593 -0.8052 0.8052 0.593 -71.2874 795.225)" class="st1" width="4.7" height="58.4"/>
			
				<rect x="726.4" y="511.8" transform="matrix(0.9574 -0.2888 0.2888 0.9574 -116.4525 239.0831)" class="st1" width="51" height="4.7"/>
			<circle class="st1" cx="722.3" cy="506.8" r="2.8"/>
			<circle class="st1" cx="770.6" cy="496.4" r="2.8"/>
			<circle class="st1" cx="718.6" cy="458.7" r="2.8"/>
			<path class="st1" d="M678.6,461.4c-0.4,0-0.9-0.2-1.2-0.5c-0.6-0.7-0.5-1.6,0.2-2.2l19.2-16.6c0.7-0.6,1.6-0.5,2.2,0.2
				c0.6,0.7,0.5,1.6-0.2,2.2L679.7,461C679.4,461.3,679,461.4,678.6,461.4z"/>
			<path class="st1" d="M772,474.9c-0.2,0-0.4,0-0.6-0.1c-0.8-0.3-1.2-1.2-0.9-2l5.5-13.5c0.3-0.8,1.2-1.2,2-0.9
				c0.8,0.3,1.2,1.2,0.9,2l-5.5,13.5C773.2,474.6,772.6,474.9,772,474.9z"/>
			<path class="st1" d="M751.9,436.2h-26c-0.9,0-1.6-0.7-1.6-1.6s0.7-1.6,1.6-1.6h26c0.9,0,1.6,0.7,1.6,1.6S752.8,436.2,751.9,436.2
				z"/>
		</g>
		<g>
			<g>
				<path class="st1" d="M429.3,260.3H309.1v-93.1h120.1V260.3z M314.8,254.6h108.7v-81.7H314.8V254.6z"/>
				<path class="st1" d="M429.3,172.9H309.1v-7.8c0-9.3,7.5-16.8,16.8-16.8h9.9v5.7h-9.9c-6.1,0-11.1,5-11.1,11.1v2.1h108.7v-2.1
					c0-6.1-5-11.1-11.1-11.1h-62.2v-5.7h62.2c9.3,0,16.8,7.5,16.8,16.8V172.9z"/>
				<path class="st1" d="M412.4,279.2h-86.5c-9.3,0-16.8-7.5-16.8-16.8v-7.8h120.1v7.8C429.3,271.6,421.7,279.2,412.4,279.2z
					 M314.8,260.3v2.1c0,6.1,5,11.1,11.1,11.1h86.5c6.1,0,11.1-5,11.1-11.1v-2.1H314.8z"/>
			</g>
			<path class="st1" d="M321.1,251c-1.3,0-2.3-1-2.3-2.3v-70c0-1.3,1-2.3,2.3-2.3c1.3,0,2.3,1,2.3,2.3v70
				C323.4,250,322.4,251,321.1,251z"/>
			<path class="st1" d="M332.8,251c-1.3,0-2.3-1-2.3-2.3v-70c0-1.3,1-2.3,2.3-2.3c1.3,0,2.3,1,2.3,2.3v70
				C335.1,250,334.1,251,332.8,251z"/>
			<path class="st1" d="M344.5,251c-1.3,0-2.3-1-2.3-2.3v-70c0-1.3,1-2.3,2.3-2.3c1.3,0,2.3,1,2.3,2.3v70
				C346.8,250,345.8,251,344.5,251z"/>
			<path class="st1" d="M356.2,251c-1.3,0-2.3-1-2.3-2.3v-70c0-1.3,1-2.3,2.3-2.3c1.3,0,2.3,1,2.3,2.3v70
				C358.5,250,357.5,251,356.2,251z"/>
			<path class="st1" d="M367.9,251c-1.3,0-2.3-1-2.3-2.3v-70c0-1.3,1-2.3,2.3-2.3c1.3,0,2.3,1,2.3,2.3v70
				C370.2,250,369.2,251,367.9,251z"/>
			<path class="st1" d="M379.6,251c-1.3,0-2.3-1-2.3-2.3v-70c0-1.3,1-2.3,2.3-2.3c1.3,0,2.3,1,2.3,2.3v70
				C381.9,250,380.9,251,379.6,251z"/>
			<path class="st1" d="M391.3,251c-1.3,0-2.3-1-2.3-2.3v-70c0-1.3,1-2.3,2.3-2.3c1.3,0,2.3,1,2.3,2.3v70
				C393.6,250,392.6,251,391.3,251z"/>
			<path class="st1" d="M403,251c-1.3,0-2.3-1-2.3-2.3v-70c0-1.3,1-2.3,2.3-2.3s2.3,1,2.3,2.3v70C405.3,250,404.3,251,403,251z"/>
			<path class="st1" d="M414.7,251c-1.3,0-2.3-1-2.3-2.3v-70c0-1.3,1-2.3,2.3-2.3c1.3,0,2.3,1,2.3,2.3v70C417,250,416,251,414.7,251
				z"/>
			<path class="st1" d="M343.1,161.8c-1.9,0-3.7-0.4-5.4-1.2l-1.7-0.8c-1.9-0.9-3.1-2.8-3.1-4.9v-16.2h20.5v16.2
				c0,2.1-1.2,4-3.1,4.9l-1.7,0.8C346.8,161.4,344.9,161.8,343.1,161.8z M337.5,143.3v11.6c0,0.3,0.2,0.6,0.5,0.7l1.7,0.8
				c2.2,1,4.7,1,6.8,0l1.7-0.8c0.3-0.1,0.5-0.4,0.5-0.7v-11.6H337.5z"/>
			<path class="st1" d="M354.5,143.9h-22.9c-1.5,0-2.8-1.3-2.8-2.8v-9.6c0-1.5,1.3-2.8,2.8-2.8h22.9c1.5,0,2.8,1.3,2.8,2.8v9.6
				C357.3,142.6,356,143.9,354.5,143.9z M333.5,139.2h19.1v-5.9h-19.1V139.2z M354.5,133.3L354.5,133.3L354.5,133.3z"/>
			<path class="st1" d="M405,288.2h-8.3c-2.8,0-5-2.3-5-5V274H410v9.2C410,285.9,407.8,288.2,405,288.2z M396.3,278.7v4.5
				c0,0.2,0.2,0.3,0.3,0.3h8.3c0.2,0,0.3-0.2,0.3-0.3v-4.5H396.3z"/>
			<path class="st1" d="M352.5,269h-29.9c-0.9,0-1.6-0.7-1.6-1.6s0.7-1.6,1.6-1.6h29.9c0.9,0,1.6,0.7,1.6,1.6S353.4,269,352.5,269z"
				/>
			<path class="st1" d="M369.2,269H359c-0.9,0-1.6-0.7-1.6-1.6s0.7-1.6,1.6-1.6h10.2c0.9,0,1.6,0.7,1.6,1.6S370,269,369.2,269z"/>
			<path class="st1" d="M410.3,161h-19c-0.9,0-1.6-0.7-1.6-1.6s0.7-1.6,1.6-1.6h19c0.9,0,1.6,0.7,1.6,1.6S411.1,161,410.3,161z"/>
		</g>
		<g>
			<path class="st1" d="M390.6,445.5h-42.8v-31.6c0-6.9,5.6-12.5,12.5-12.5h17.9c6.9,0,12.5,5.6,12.5,12.5V445.5z M352.5,440.8h33.5
				v-26.9c0-4.3-3.5-7.8-7.8-7.8h-17.9c-4.3,0-7.8,3.5-7.8,7.8V440.8z"/>
			<path class="st1" d="M376.6,406.1h-14.7v-18.8c0-1.4,1.1-2.6,2.6-2.6h9.6c1.4,0,2.6,1.1,2.6,2.6V406.1z M366.5,401.4h5.4v-12
				h-5.4V401.4z M374,389.5L374,389.5L374,389.5z"/>
			<path class="st1" d="M389.8,507.2h-41.3c-1.4,0-2.5-1.1-2.5-2.5v-10.1h46.4v10.1C392.4,506,391.2,507.2,389.8,507.2z
				 M350.7,502.5h37v-3.3h-37V502.5z"/>
			<path class="st1" d="M385.1,549.5h-31.8c-1.9,0-3.4-1.5-3.4-3.4v-43.6h38.6v43.6C388.5,547.9,386.9,549.5,385.1,549.5z
				 M354.6,544.8h29.2v-37.6h-29.2V544.8z"/>
			<path class="st1" d="M386.1,516.6h-27.8c-1,0-1.8-0.8-1.8-1.8s0.8-1.8,1.8-1.8h27.8c1,0,1.8,0.8,1.8,1.8S387.1,516.6,386.1,516.6
				z"/>
			<path class="st1" d="M377.4,528.5h-25.1c-1,0-1.8-0.8-1.8-1.8c0-1,0.8-1.8,1.8-1.8h25.1c1,0,1.8,0.8,1.8,1.8
				C379.2,527.7,378.4,528.5,377.4,528.5z"/>
			<path class="st1" d="M386.1,539.2h-21.8c-1,0-1.8-0.8-1.8-1.8c0-1,0.8-1.8,1.8-1.8h21.8c1,0,1.8,0.8,1.8,1.8
				C388,538.4,387.1,539.2,386.1,539.2z"/>
			<path class="st1" d="M398.8,482.9h-59.2c-1.7,0-3.1-1.4-3.1-3.1v-10c0-1.7,1.4-3.1,3.1-3.1h59.2c1.7,0,3.1,1.4,3.1,3.1v10
				C401.8,481.5,400.5,482.9,398.8,482.9z M341.2,478.2h55.9v-6.8h-55.9V478.2z"/>
			<g>
				<path class="st1" d="M396.1,471.5h-53.9v-27.4c0-1.8,1.5-3.3,3.3-3.3h47.3c1.8,0,3.3,1.5,3.3,3.3V471.5z M346.9,466.8h44.6
					v-21.3h-44.6V466.8z"/>
				<path class="st1" d="M392.9,499.2h-47.3c-1.8,0-3.3-1.5-3.3-3.3v-17.7h53.9v17.7C396.1,497.7,394.7,499.2,392.9,499.2z
					 M346.9,494.5h44.6v-11.6h-44.6V494.5z"/>
			</g>
			<path class="st1" d="M377.8,566.4H361c-3.7,0-6.6-3-6.6-6.6v-15h13v10.1h10.4c1.7,0,3.1,1.4,3.1,3.1v5.2
				C380.9,565,379.5,566.4,377.8,566.4z M359,549.5v10.3c0,1.1,0.9,2,2,2h15.2v-2.1h-10.7c-1.6,0-2.9-1.3-2.9-2.9v-7.3H359z
				 M377.8,559.6L377.8,559.6L377.8,559.6z"/>
			<path class="st1" d="M380.6,434c-1,0-1.8-0.8-1.8-1.8v-15.6c0-1,0.8-1.8,1.8-1.8s1.8,0.8,1.8,1.8v15.6
				C382.4,433.2,381.6,434,380.6,434z"/>
			<path class="st1" d="M386.1,457.9c-1,0-1.8-0.8-1.8-1.8v-7.3c0-1,0.8-1.8,1.8-1.8s1.8,0.8,1.8,1.8v7.3
				C388,457.1,387.1,457.9,386.1,457.9z"/>
		</g>
		<g>
			<g>
				<path class="st1" d="M674.3,812.7h-12.8c-2.8,0-5.1-2.3-5.1-5.1V704.4c0-2.8,2.3-5.1,5.1-5.1h12.9c1.4,0,2.8,0.3,4.1,0.7
					l53.4,20.4V791l-53.4,20.9C677.2,812.5,675.8,812.7,674.3,812.7z M662.2,807h12.2c0.7,0,1.4-0.1,2.1-0.4l49.7-19.5v-62.7
					l-49.7-19c-0.6-0.2-1.3-0.4-2-0.4h-12.2V807z"/>
				<path class="st1" d="M674.4,774.1c-1.3,0-2.3-1-2.3-2.3v-69.6c0-1.3,1-2.3,2.3-2.3c1.3,0,2.3,1,2.3,2.3v69.6
					C676.7,773.1,675.7,774.1,674.4,774.1z"/>
				<path class="st1" d="M674.3,812.2C674.3,812.2,674.3,812.2,674.3,812.2c-1.3,0-2.3-1.1-2.3-2.3l0-22.9c0-1.3,1-2.3,2.3-2.3
					c0,0,0,0,0,0c1.3,0,2.3,1.1,2.3,2.3l0,22.9C676.7,811.2,675.6,812.2,674.3,812.2z"/>
			</g>
			<path class="st1" d="M662.2,764H641c-2.1,0-3.8-1.7-3.8-3.8v-8.2c0-2.1,1.7-3.8,3.8-3.8h21.1V764z M642.9,758.2h13.5v-4.4h-13.5
				V758.2z"/>
			<path class="st1" d="M801.3,791h-75.4v-71.9h75.4c2.4,0,4.3,1.9,4.3,4.3v63.3C805.6,789.1,803.7,791,801.3,791z M731.6,785.3
				h68.3v-60.5h-68.3V785.3z"/>
			<path class="st1" d="M718.4,731.5c-0.2,0-0.5,0-0.7-0.1L686.5,721c-1.2-0.4-1.9-1.7-1.5-3c0.4-1.2,1.7-1.9,3-1.5l31.2,10.4
				c1.2,0.4,1.9,1.7,1.5,3C720.3,730.9,719.4,731.5,718.4,731.5z"/>
			<path class="st1" d="M780.2,733.7h-41.6c-1.3,0-2.3-1-2.3-2.3s1-2.3,2.3-2.3h41.6c1.3,0,2.3,1,2.3,2.3S781.5,733.7,780.2,733.7z"
				/>
			<path class="st1" d="M814.8,763.4h-15v-14.8h15c1.7,0,3,1.4,3,3v8.8C817.9,762.1,816.5,763.4,814.8,763.4z M804.5,758.8h8.6v-5.5
				h-8.6V758.8z"/>
			<path class="st1" d="M788.4,724.3h-46v-11.4c0-1.5,1.2-2.7,2.7-2.7h40.7c1.5,0,2.7,1.2,2.7,2.7V724.3z M747.1,719.6h36.7v-4.7
				h-36.7V719.6z M785.7,714.9L785.7,714.9L785.7,714.9z"/>
			<path class="st1" d="M778.1,714.9h-25.5v-10.4c0-2,1.6-3.6,3.6-3.6h18.2c2,0,3.6,1.6,3.6,3.6V714.9z M757.3,710.3h16.1v-4.7
				h-16.1V710.3z M774.5,705.6L774.5,705.6L774.5,705.6z"/>
			<path class="st1" d="M796.1,781.3h-13c-1.3,0-2.3-1-2.3-2.3c0-1.3,1-2.3,2.3-2.3h13c1.3,0,2.3,1,2.3,2.3
				C798.4,780.2,797.4,781.3,796.1,781.3z"/>
			<path class="st1" d="M770.3,789.8h-34.1v-14.6c0-2.7,2.2-4.9,4.9-4.9h24.3c2.7,0,4.9,2.2,4.9,4.9V789.8z M742,784.1h22.6v-8.1
				H742V784.1z"/>
		</g>
		<g>
			<path class="st1" d="M1057.8,806.5h-44.3c-1.4,0-2.5-1.1-2.5-2.5v-9.9c0-1.4,1.1-2.5,2.5-2.5h44.3c1.4,0,2.5,1.1,2.5,2.5v9.9
				C1060.3,805.4,1059.2,806.5,1057.8,806.5z M1015.7,801.8h39.9v-5.6h-39.9V801.8z"/>
			<polygon class="st1" points="1049.3,777.1 1044.1,777.1 1044.1,767.2 1027.3,764 1027.3,772.9 1022.1,772.9 1022.1,757.7 
				1049.3,762.8 			"/>
			<polygon class="st1" points="1049,796.3 1022.3,796.3 1022.3,782.4 1027,782.4 1027,791.6 1044.3,791.6 1044.3,786.6 1049,786.6 
							"/>
			<path class="st1" d="M1061.3,722.8h-51.2c-1.8,0-3.3-1.5-3.3-3.3v-9.6c0-1.8,1.5-3.3,3.3-3.3h51.2c1.8,0,3.3,1.5,3.3,3.3v9.6
				C1064.5,721.3,1063,722.8,1061.3,722.8z M1011.5,718.1h48.3v-6.8h-48.3V718.1z"/>
			<path class="st1" d="M1057.1,711.3h-42.9v-11.2c0-4.2,3.4-7.7,7.7-7.7h27.6c4.2,0,7.7,3.4,7.7,7.7V711.3z M1018.9,706.7h33.5
				v-6.6c0-1.6-1.3-3-3-3h-27.6c-1.6,0-3,1.3-3,3V706.7z"/>
			<path class="st1" d="M1035.7,688.4c-7.6,0-13.8-6.2-13.8-13.8c0-7.6,6.2-13.8,13.8-13.8c7.6,0,13.8,6.2,13.8,13.8
				C1049.5,682.1,1043.3,688.4,1035.7,688.4z M1035.7,664.8c-5.3,0-9.7,4.3-9.7,9.7c0,5.3,4.3,9.7,9.7,9.7c5.3,0,9.7-4.3,9.7-9.7
				C1045.4,669.2,1041,664.8,1035.7,664.8z"/>
			<path class="st1" d="M1035.7,681c-3.6,0-6.5-2.9-6.5-6.5c0-3.6,2.9-6.5,6.5-6.5c3.6,0,6.5,2.9,6.5,6.5
				C1042.2,678.1,1039.3,681,1035.7,681z M1035.7,671.7c-1.6,0-2.9,1.3-2.9,2.9c0,1.6,1.3,2.9,2.9,2.9c1.6,0,2.9-1.3,2.9-2.9
				C1038.5,672.9,1037.2,671.7,1035.7,671.7z"/>
			<path class="st1" d="M1042,697.1h-12.8v-12.7h12.8V697.1z M1034,692.4h3.4v-3.3h-3.4V692.4z"/>
			<path class="st1" d="M1035.7,851.4c-7.6,0-13.8-6.2-13.8-13.8c0-7.6,6.2-13.8,13.8-13.8c7.6,0,13.8,6.2,13.8,13.8
				C1049.5,845.2,1043.3,851.4,1035.7,851.4z M1035.7,827.9c-5.3,0-9.7,4.3-9.7,9.7s4.3,9.7,9.7,9.7c5.3,0,9.7-4.3,9.7-9.7
				S1041,827.9,1035.7,827.9z"/>
			<path class="st1" d="M1035.7,844c-3.6,0-6.5-2.9-6.5-6.5s2.9-6.5,6.5-6.5c3.6,0,6.5,2.9,6.5,6.5S1039.3,844,1035.7,844z
				 M1035.7,834.7c-1.6,0-2.9,1.3-2.9,2.9s1.3,2.9,2.9,2.9c1.6,0,2.9-1.3,2.9-2.9S1037.2,834.7,1035.7,834.7z"/>
			<path class="st1" d="M1042,827.6h-12.8v-12.1h12.8V827.6z M1034,822.9h3.4v-2.8h-3.4V822.9z"/>
			<path class="st1" d="M1049.7,820h-28.1c-2,0-3.6-1.6-3.6-3.6v-11c0-2,1.6-3.6,3.6-3.6h28.1c2,0,3.6,1.6,3.6,3.6v11
				C1053.3,818.4,1051.7,820,1049.7,820z M1022.7,815.4h25.9v-8.8h-25.9V815.4z"/>
			<g>
				<path class="st1" d="M1043.4,757l-15.6-2.9v-17.1l15.6,2.9V757z M1032.6,750.2l6.2,1.2v-7.6l-6.2-1.2V750.2z"/>
				<path class="st1" d="M1043.4,735.2l-15.6-2.9v-14l15.6,0V735.2z M1032.6,728.3l6.2,1.2v-6.7l-6.2,0V728.3z"/>
			</g>
			<path class="st1" d="M1050.6,789.5c-0.5,0-1.1,0-1.6-0.1l-30.3-5.8c-3-0.6-5.3-2.7-5.7-5.5c-0.4-2.1,0.4-4.3,2-5.9
				c1.9-1.9,4.6-2.7,7.3-2.2l30.3,5.8c3,0.6,5.3,2.7,5.7,5.5c0.4,2.1-0.4,4.3-2,5.9C1054.8,788.7,1052.8,789.5,1050.6,789.5z
				 M1020.7,774.6c-1.1,0-2,0.5-2.5,1c-0.3,0.3-0.8,0.9-0.7,1.8c0.1,0.8,0.9,1.5,2,1.7l30.3,5.8c1.4,0.3,2.6-0.3,3.2-0.9
				c0.3-0.3,0.8-0.9,0.7-1.8l0,0c-0.1-0.8-0.9-1.5-2-1.7l-30.3-5.8C1021.2,774.6,1021,774.6,1020.7,774.6z M1050.6,767.7
				c-0.5,0-1.1,0-1.6-0.1l-30.3-5.8c-3-0.6-5.3-2.7-5.7-5.5c-0.4-2.1,0.4-4.3,2-5.9c1.9-1.9,4.6-2.7,7.3-2.2l30.3,5.8
				c3,0.6,5.3,2.7,5.7,5.5l0,0c0.4,2.1-0.4,4.3-2,5.9C1054.8,766.9,1052.8,767.7,1050.6,767.7z M1020.7,752.8c-1.1,0-2,0.5-2.5,1
				c-0.3,0.3-0.8,0.9-0.7,1.8c0.1,0.8,0.9,1.5,2,1.7l30.3,5.8c1.4,0.3,2.6-0.3,3.2-0.9c0.3-0.3,0.8-0.9,0.7-1.8v0
				c-0.1-0.8-0.9-1.5-2-1.7l-30.3-5.8C1021.2,752.8,1021,752.8,1020.7,752.8z M1050.6,745.9c-0.5,0-1.1,0-1.6-0.1l-30.3-5.8
				c-3-0.6-5.3-2.7-5.7-5.5c-0.4-2.1,0.4-4.3,2-5.9c1.9-1.9,4.6-2.7,7.3-2.2l30.3,5.8c3,0.6,5.3,2.7,5.7,5.5l0,0
				c0.4,2.1-0.4,4.3-2,5.9C1054.8,745,1052.8,745.9,1050.6,745.9z M1020.7,730.9c-1.1,0-2,0.5-2.5,1c-0.3,0.3-0.8,0.9-0.7,1.8
				c0.1,0.8,0.9,1.5,2,1.7l30.3,5.8c1.4,0.3,2.6-0.3,3.2-0.9c0.3-0.3,0.8-0.9,0.7-1.8v0c-0.1-0.8-0.9-1.5-2-1.7l-30.3-5.8
				C1021.2,731,1021,730.9,1020.7,730.9z"/>
			<path class="st1" d="M1046.7,703.2h-13.3c-0.7,0-1.3-0.6-1.3-1.3c0-0.7,0.6-1.3,1.3-1.3h13.3c0.7,0,1.3,0.6,1.3,1.3
				C1048,702.6,1047.4,703.2,1046.7,703.2z"/>
		</g>
	</g>
</g>
</svg>
